<svg width="432" height="111" viewBox="0 0 432 111" fill="none" xmlns="http://www.w3.org/2000/svg">
<path d="M421.893 89.3623V88.6157C421.68 88.6157 421.573 88.7224 421.573 88.9357C421.573 89.149 421.68 89.2557 421.893 89.2557C421.68 90.0023 421.68 90.4289 422.106 90.6422C422.426 90.7488 422.533 91.1755 422.426 91.9221C419.013 96.0816 414.64 99.3879 409.414 101.841C404.295 104.187 398.855 106.214 392.883 108.027C390.323 107.494 389.043 105.574 389.043 101.948C389.683 101.308 390.11 101.201 390.43 101.414C390.75 101.628 391.176 101.414 391.71 100.668C393.203 101.094 394.589 101.201 395.763 100.881C396.829 100.561 397.789 100.028 398.749 99.4946C399.709 98.8546 400.669 98.428 401.629 97.8947C402.482 97.2548 403.442 97.0415 404.508 97.0415C405.681 96.0816 406.855 95.2284 408.028 94.3751C409.094 93.5219 410.481 92.7753 412.081 91.9221C411.654 90.8555 410.694 90.0023 409.414 89.469C408.241 88.8291 407.068 88.9357 406.001 89.789C405.468 88.2958 404.722 86.6959 404.082 85.2028C403.228 83.7096 402.588 82.1098 401.949 80.4033C401.415 78.5902 400.989 76.777 400.882 74.7506C400.775 72.7241 401.095 70.4844 401.842 68.0313C402.802 67.818 403.335 67.2847 403.442 66.4315C403.548 65.5782 403.762 64.725 403.975 63.7651C405.255 62.8052 406.535 61.8453 407.708 60.992C408.774 59.9255 409.948 58.9656 411.228 58.0057C412.294 57.7924 412.721 58.219 412.507 59.2856C413.254 59.2856 413.467 58.9656 413.361 58.219C413.254 57.4724 413.361 57.0458 413.894 56.8325C415.28 57.6857 416.774 57.3658 418.16 55.9792C419.547 55.9792 421.04 56.1926 422.64 56.5125C424.133 56.7258 425.519 57.2591 426.693 57.899C427.972 58.539 429.039 59.3922 429.892 60.5654C430.852 61.632 431.385 62.9118 431.705 64.5117C432.025 66.9647 431.705 69.2045 430.639 71.2309C429.572 73.1507 428.186 74.8572 426.373 76.3504C424.666 77.8436 422.96 79.3367 421.04 80.6166C419.12 81.8965 417.627 83.1763 416.454 84.4562C416.774 84.8828 417.307 85.3094 418.053 85.7361C418.8 86.056 419.44 86.4826 420.187 86.8026C420.933 87.1226 421.466 87.5492 422 88.0825C422.426 88.4024 422.64 88.9357 422.533 89.469H422L421.893 89.3623ZM411.334 81.3632C412.507 80.19 413.894 79.0168 415.387 78.0569C417.094 76.8837 418.48 76.6704 419.867 77.5236C421.04 75.6038 422.32 73.684 423.813 71.6576C425.306 69.6311 426.053 67.3914 425.946 64.725C423.066 62.9118 420.293 62.3786 417.627 63.1252C415.067 63.8717 412.934 65.1516 411.228 67.178C409.521 69.0978 408.561 71.3376 408.348 74.1106C408.241 76.6704 409.201 79.1234 411.334 81.3632Z" fill="#252C26"/>
<path d="M354.164 67.3908C354.271 69.2039 354.164 70.8038 353.631 72.1903C353.311 73.4701 352.778 74.75 352.245 76.1365C351.818 77.3097 351.285 78.5896 350.858 79.8694C350.431 81.0426 350.111 82.4292 350.005 83.9223C352.138 83.0691 354.058 81.7892 355.658 79.8694C357.471 77.9496 359.177 76.2432 360.777 74.5367C362.59 72.7235 364.403 71.4437 366.43 70.6971C368.563 69.8439 371.123 70.0572 374.216 71.2304C376.029 73.4701 377.202 76.1365 377.735 79.2295C378.268 82.2159 378.908 85.0955 379.442 87.9752C380.188 90.7483 381.148 93.0947 382.641 95.2278C384.028 97.2542 386.374 98.3208 389.681 98.6408C391.174 98.3208 392.454 97.6809 393.414 96.8276C394.48 95.8677 395.867 95.5478 397.466 95.9744C399.28 94.6945 400.879 93.308 402.479 91.7082C404.186 90.215 406.106 89.0418 408.559 88.4019C409.412 87.442 410.265 86.5887 411.012 85.7355C411.865 84.7756 413.145 84.4556 414.958 84.6689C413.998 87.9752 412.185 90.1083 409.412 91.0682C408.985 91.7082 408.559 92.3481 408.345 92.988C408.132 93.7346 407.705 94.2679 407.279 94.8012C406.959 95.1211 406.319 95.3344 405.466 95.3344C403.972 97.4676 401.733 99.2807 398.853 100.774C396.08 102.267 393.2 103.227 390.107 103.547C387.014 103.867 384.135 103.547 381.468 102.587C378.802 101.52 376.669 99.3873 375.282 96.401C374.749 94.4812 374.216 92.6681 373.682 90.7483C373.362 88.7218 372.936 86.802 372.616 85.0955C372.296 83.1758 371.763 81.4693 371.229 79.7628C370.696 78.0563 369.843 76.5631 368.989 75.1766C366.216 76.7764 363.763 78.6962 361.31 80.8293C359.071 82.9624 356.831 85.2022 354.698 87.5486C352.565 89.7884 350.431 92.1348 348.298 94.5879C346.272 96.9343 344.245 99.2807 342.112 101.52H338.166C337.846 100.987 337.526 100.561 337.313 100.134C337.206 99.494 336.886 99.174 336.46 98.8541C336.993 96.2943 337.633 93.8413 338.593 91.8148C339.659 89.6817 340.726 87.6553 341.792 85.6288C342.859 83.6024 343.925 81.5759 344.779 79.4428C345.739 77.3097 346.485 74.9633 347.125 72.5102C342.646 73.7901 338.059 75.6032 333.26 77.9496C328.567 80.2961 323.768 82.3225 319.075 83.9223C318.435 86.4821 317.688 89.2551 316.515 92.0281C315.449 94.6945 314.062 97.1476 312.462 99.2807C310.969 101.414 308.943 103.014 306.596 104.08C304.356 105.04 301.69 104.933 298.597 103.867C297.85 103.227 297.317 102.48 296.997 101.52C296.571 100.454 296.251 99.3873 296.144 98.3208C295.931 97.1476 295.717 95.9744 295.611 94.9078C295.397 93.8413 295.077 92.988 294.757 92.2414C295.077 90.9616 295.611 90.0017 296.144 89.3618C296.571 88.6152 296.784 87.6553 296.464 86.3754C297.424 84.4556 298.384 82.7491 299.45 81.0426C300.517 79.2295 301.903 77.9496 303.716 76.9898C303.29 76.6698 302.863 76.2432 302.65 75.7099C302.437 75.07 302.223 74.5367 301.903 73.8967C302.437 71.5503 303.61 69.9505 305.423 69.3106C307.343 68.564 309.263 68.4573 311.289 68.9906C313.422 69.5239 315.342 70.4838 316.942 71.977C318.542 73.3635 319.501 75.1766 319.715 77.3097C320.568 77.4164 321.528 77.3097 322.594 76.9898C323.661 76.6698 324.728 76.2432 325.794 75.9232C326.861 75.4966 327.821 75.1766 328.674 75.07C329.527 74.8566 330.167 74.8566 330.807 75.2833L333.473 72.2969C335.713 72.1903 337.633 71.7636 339.339 70.9104C341.046 70.0572 342.646 69.3106 344.139 68.4573C345.632 67.6041 347.125 67.0708 348.618 66.7508C350.112 66.4309 351.925 66.6442 353.951 67.4974L354.164 67.3908ZM302.97 99.0674C306.17 98.0008 308.516 96.081 309.903 93.4146C311.289 90.7483 312.676 87.8686 314.062 84.8822C312.782 84.7756 312.036 84.1356 311.716 83.0691C311.502 82.0025 310.969 81.1493 310.329 80.616C308.196 80.7227 306.383 81.4693 304.783 82.7491C303.29 84.029 302.223 85.6288 301.583 87.5486C300.837 89.4684 300.623 91.4949 300.837 93.5213C300.943 95.6544 301.69 97.4676 302.97 99.0674Z" fill="#252C26"/>
<path d="M242.074 88.2947C243.78 88.2947 245.274 87.8681 246.66 87.1215C248.153 86.2682 249.647 85.415 251.14 84.4551C252.526 83.4952 254.019 82.642 255.406 81.7887C256.792 80.8288 258.286 80.2955 259.885 80.0822C260.632 78.5891 261.592 77.3092 262.765 76.3493C264.045 75.2828 265.432 74.3229 266.818 73.5763C268.205 72.723 269.698 71.9764 271.084 71.3365C272.471 70.4833 273.751 69.5234 274.817 68.5635C275.03 68.9901 275.35 69.2034 275.67 69.0968C275.99 68.8834 276.524 68.6701 277.057 68.5635C277.27 68.9901 277.484 69.4167 277.59 69.8433C277.697 70.1633 278.017 70.4833 278.657 70.5899C278.87 72.9363 278.87 75.2828 278.657 77.5225C278.443 79.7623 278.23 82.002 278.123 84.0285C278.017 86.0549 278.123 87.9747 278.657 89.6812C279.19 91.4943 280.47 93.0942 282.39 94.4807C283.456 94.1607 284.629 94.2674 285.803 94.8007C287.083 95.2273 288.042 95.6539 288.682 95.8672C291.135 95.4406 293.908 94.8007 297.001 93.9474C300.094 92.9875 302.654 92.5609 304.681 92.7742C299.774 98.6402 291.989 100.88 281.216 99.3868C278.977 98.6403 277.164 97.5737 275.884 96.1872C274.604 94.694 273.644 92.8809 273.111 90.8544C272.577 88.828 272.257 86.6949 272.257 84.2418C272.364 81.8954 272.791 79.549 273.324 77.2025C270.338 78.6957 267.671 80.5089 265.112 82.5353C262.658 84.4551 260.099 86.2682 257.646 88.188C255.193 90.1078 252.526 91.8143 249.647 93.3075C246.767 94.8007 243.567 95.8672 240.048 96.2938C238.981 95.9739 238.128 95.4406 237.381 94.694C236.635 93.8408 235.995 92.9875 235.461 92.2409C235.568 88.6147 236.101 85.415 237.061 82.642C238.128 79.7623 238.874 76.6693 239.408 73.2563C238.448 73.5763 237.594 74.3229 236.955 75.6027C236.208 76.6693 235.568 77.8425 234.821 79.1223C234.075 80.2956 233.328 81.5754 232.475 82.8553C231.728 84.1351 230.875 85.2017 229.809 85.8416C227.142 90.9611 223.943 95.4406 220.21 99.2802C216.583 103.12 212.637 106.853 208.478 110.266C208.371 110.052 208.051 109.839 207.411 109.732C206.771 109.519 206.451 109.732 206.345 110.266C205.278 109.199 204.745 108.026 204.745 106.853C204.745 105.573 205.065 104.293 205.598 102.906C206.238 101.52 206.984 100.133 207.944 98.8536C208.798 97.467 209.544 96.0805 210.077 94.8007C211.357 92.4542 212.744 90.2145 214.13 88.0814C215.517 85.8416 216.263 83.3886 216.263 80.8288C215.624 80.6155 215.41 80.7222 215.517 81.1488C215.624 81.5754 215.304 81.7887 214.664 81.4688C214.877 78.1624 215.73 74.9628 217.01 71.8698C218.183 68.6701 219.89 66.0038 222.129 63.8706C222.449 64.1906 222.769 64.2973 222.876 64.1906C223.089 63.9773 223.516 63.8706 224.156 63.8706C225.329 65.1505 225.862 66.9636 225.756 69.4167C225.649 71.7631 225.222 74.2162 224.476 76.8826C223.729 79.4423 222.876 82.002 221.81 84.4551C220.743 86.9082 219.89 88.828 219.143 90.3211C221.383 88.2947 223.303 86.0549 225.009 83.6019C226.716 81.1488 228.315 78.5891 230.022 76.0293C231.728 73.4696 233.435 70.9099 235.141 68.5635C236.955 66.1104 238.981 63.8706 241.327 62.0575C242.074 62.0575 242.501 62.0575 242.714 62.2708C242.927 62.3775 243.354 62.1642 243.78 61.5242C245.167 63.2307 245.914 65.1505 246.02 67.3903C246.127 69.5234 245.914 71.7631 245.274 74.1095C244.74 76.456 244.207 78.909 243.461 81.3621C242.714 83.8152 242.287 86.1616 241.967 88.4013L242.074 88.2947Z" fill="#252C26"/>
<path d="M134.56 79.7636C136.266 79.4436 137.653 78.697 138.826 77.5238C140.106 76.244 141.386 74.8575 142.559 73.4709C143.732 72.0844 144.906 70.8046 146.079 69.6313C147.252 68.3515 148.639 67.4982 150.345 67.1783C150.878 64.9385 152.051 63.4453 153.865 62.5921C155.891 61.6322 158.237 60.779 161.011 59.9257C162.504 60.5657 163.57 61.5255 164.21 62.9121C164.957 64.2986 165.277 65.8984 165.277 67.7116C165.277 69.5247 164.957 71.2312 164.423 73.0443C163.997 74.8574 163.357 76.244 162.61 77.5238C162.93 79.2303 162.824 81.2568 162.077 83.9231C161.33 86.4829 160.797 89.1493 160.477 91.9223C161.864 91.9223 163.144 91.709 164.21 91.389C165.383 90.9624 166.45 90.4291 167.41 89.7892C168.37 89.0426 169.33 88.4027 170.29 87.8694C171.249 87.1228 172.209 86.5895 173.276 86.0563C173.489 85.9496 173.809 85.9496 174.129 86.0563C174.449 86.1629 174.769 86.1629 174.982 86.0563C176.689 85.203 178.182 84.2431 179.569 83.0699C180.955 81.79 182.448 80.5102 183.835 79.337C185.328 78.1638 186.928 77.2039 188.421 76.3506C189.914 75.3907 191.727 74.8574 193.754 74.6441L198.02 78.0571C198.02 79.8703 197.913 81.4701 197.7 83.0699C197.487 84.5631 197.38 86.0562 197.38 87.5494C197.38 88.8293 197.593 90.0025 197.913 91.069C198.34 92.1356 199.3 93.0955 200.58 93.9487C202.926 93.9487 205.059 93.6288 206.766 92.8822C208.685 92.0289 210.392 91.1757 212.098 90.2158C213.805 89.1492 215.405 88.0827 217.111 87.0161C218.924 85.9496 220.737 85.0964 222.764 84.5631C221.804 89.1493 219.244 91.9223 215.085 92.6689C214.765 92.6689 214.551 92.8822 214.551 93.4155C214.551 93.7354 214.551 94.0554 214.551 94.2687C212.525 95.2286 210.712 96.2952 209.005 97.4684C207.299 98.5349 205.379 99.3882 202.926 99.9214C200.793 100.241 198.98 100.135 197.38 99.3882C195.887 98.6416 194.5 97.6817 193.54 96.4018C192.58 95.0153 192.047 93.4155 191.834 91.6023C191.621 89.6825 191.834 87.7627 192.367 85.7363C192.154 85.0964 191.941 84.5631 191.621 83.9231C191.407 83.2832 191.407 82.5366 191.621 81.4701C191.301 81.2568 190.874 81.2568 190.341 81.6834C190.021 82.0033 189.594 82.43 189.061 82.9632C188.634 83.2832 188.101 83.6032 187.674 83.8165C187.354 84.0298 186.928 84.0298 186.394 83.6032C185.968 84.5631 185.115 85.523 184.048 86.5895C183.088 87.5494 182.128 87.5494 181.168 86.5895C181.168 87.2295 181.168 87.7627 181.168 88.1894C181.168 88.616 181.062 89.0426 180.848 89.2559C178.715 90.0025 176.689 90.9624 174.662 92.2422C172.743 93.5221 170.823 94.802 168.796 95.9752C166.877 97.0417 164.85 97.895 162.717 98.4283C160.584 98.8549 158.344 98.6416 155.998 97.6817C154.718 95.4419 154.185 92.9888 154.398 90.4291C154.718 87.7627 155.251 84.883 155.998 82.11C156.744 79.2303 157.384 76.4573 158.131 73.7909C158.877 70.9112 158.984 68.2448 158.664 65.7918C156.851 66.965 155.251 68.3515 153.865 69.8447C152.585 71.3378 151.092 72.831 149.598 74.2175C149.385 74.1109 149.278 73.7909 149.278 73.3643C147.252 76.0307 145.012 78.5904 142.666 80.9368C140.319 83.2832 137.866 85.6296 135.413 87.976C133.067 90.2158 130.72 92.5622 128.481 95.0153C126.348 97.4684 124.428 100.241 122.828 103.334C121.868 103.654 121.121 103.761 120.482 103.654C119.842 103.548 119.095 103.441 118.135 103.334C117.922 103.121 117.708 102.908 117.389 102.588C117.282 102.268 117.069 101.948 116.855 101.735C117.708 99.3881 118.668 97.255 119.735 95.3353C120.801 93.3088 121.868 91.389 122.935 89.4692C124.001 87.5494 125.068 85.6296 125.921 83.6032C126.881 81.5767 127.627 79.337 128.267 76.8839C122.615 78.8037 116.855 80.1902 111.096 81.0435C105.336 82.0033 98.9372 82.8566 92.1112 83.6032C91.3646 84.6697 90.7247 85.7363 90.1914 87.0161C89.7648 88.1894 89.2315 89.3626 88.5916 90.5358C87.9517 91.6023 87.2051 92.5622 86.2452 93.5221C85.392 94.3754 84.4321 95.0153 83.2588 95.4419C82.9389 96.2951 82.0856 97.2551 80.9124 98.3216C79.7392 99.2815 78.4594 100.028 76.9662 100.561C75.6863 101.095 74.4065 101.415 73.0199 101.308C71.7401 101.095 70.6735 100.241 70.0336 98.8549C69.8203 98.8549 69.7136 98.9615 69.7136 99.1748C69.607 99.2815 69.5003 99.4948 69.5003 99.7081C69.5003 99.8148 69.5003 100.028 69.287 100.241C69.1804 100.348 68.9671 100.241 68.5404 100.028C67.4739 98.6416 67.0473 96.9351 67.3672 95.0153C67.4739 93.0955 67.4739 91.2824 67.3672 89.3626H69.1804C69.7136 86.3762 70.5669 83.9231 72.06 81.8967C73.4466 79.8702 75.1531 78.1638 77.1795 76.5639C76.9662 74.7508 76.9662 73.3643 77.3928 72.2977C77.8194 71.1245 78.3527 69.9513 78.9926 68.8848C80.8058 68.4581 82.5123 68.1382 84.1121 68.0315C85.9252 67.9249 87.4184 68.1382 88.6983 68.7781C89.9781 69.2047 91.0447 70.1646 91.6846 71.6578C92.5379 72.9377 92.9645 74.7508 92.8578 77.2039C98.7239 77.8438 104.697 77.6305 110.776 76.5639C116.962 75.4974 122.508 73.4709 127.414 70.3779C127.841 70.8046 128.374 71.0179 128.801 70.6979C129.227 70.4846 129.761 70.1646 130.187 69.8447C130.827 69.418 131.36 68.8848 132 68.4581C132.64 68.0315 133.173 67.7116 133.813 67.6049C134.987 67.4982 135.947 67.7115 136.693 68.3515C137.44 68.7781 137.76 69.5247 137.973 70.2713C138.186 71.1245 138.186 71.9778 137.76 72.7243C137.44 73.4709 136.8 74.0042 135.947 74.3242C136.373 75.2841 136.266 76.244 135.627 77.2039C134.987 78.1638 134.56 79.017 134.24 79.8702L134.56 79.7636ZM79.206 80.4035C78.566 81.4701 77.9261 82.5366 77.2862 83.8165C76.5396 84.883 75.8996 85.9496 75.3664 87.2295C74.6198 88.4027 74.1932 89.6825 73.9798 91.1757C73.6599 92.4556 73.5532 93.8421 73.7665 95.4419C80.4858 93.8421 84.752 89.2559 86.5652 81.79C85.8186 81.8967 85.392 81.79 85.2853 81.4701C85.1786 81.0435 84.8587 80.7235 84.4321 80.6168C84.2188 81.2568 83.7921 81.4701 83.3655 81.4701C83.0455 81.4701 82.6189 81.4701 82.0856 81.2568C81.659 81.0435 81.1257 80.8301 80.6991 80.7235C80.2725 80.5102 79.7392 80.4035 79.3126 80.5102L79.206 80.4035Z" fill="#252C26"/>
<path d="M35.5846 58.1144C35.9046 57.4744 36.4378 57.2611 37.1844 57.2611C38.0377 57.1545 38.8909 57.1545 39.8508 57.2611C40.9173 58.1144 41.4506 59.0743 41.6639 60.2475C41.7706 61.314 41.6639 62.4872 41.1307 63.7671C40.8107 64.9403 40.2774 66.1135 39.5308 67.2867C38.7842 68.3533 38.251 69.2065 37.7177 69.9531C36.9711 69.7398 36.3312 69.4198 35.7979 69.0999C35.3713 68.7799 34.838 68.4599 34.1981 68.2466C34.1981 67.6067 34.1981 66.9668 34.1981 66.3268C34.3047 65.5802 34.1981 65.1536 33.8781 64.9403C30.4651 65.9002 26.9455 67.6067 23.4259 70.2731C19.9063 72.7261 16.8133 75.2859 14.3602 78.0589C12.5471 80.0854 10.9472 82.4318 9.3474 85.3115C7.85422 87.9778 7.00098 91.1775 7.00098 94.6971C7.53426 96.4036 8.60081 97.5768 9.98733 98.4301C11.4805 99.2833 13.187 99.8166 14.8935 100.243C16.7066 100.563 18.5197 100.883 20.4395 100.99C22.466 101.096 24.1725 101.31 25.559 101.523C26.5189 100.883 27.9054 100.457 29.6119 100.137C31.425 99.7099 32.7049 99.7099 33.6648 100.35C34.7313 99.4966 35.9046 98.9633 37.0778 98.5367C38.3576 98.1101 39.6375 98.0034 41.024 98.2167C41.8772 97.7901 42.9438 97.2568 44.2237 96.6169C45.5035 96.0836 46.89 95.5504 48.2766 95.0171C49.7697 94.4838 51.2629 93.9505 52.5428 93.4173C53.9293 92.9906 55.2091 92.564 56.2757 92.3507C56.9156 92.0307 57.6622 91.3908 58.7288 90.5376C59.7953 89.6843 60.5419 89.6843 61.0752 90.5376C61.2885 90.3243 61.5018 90.1109 61.8218 90.0043C62.1417 89.791 62.355 89.3644 62.355 88.7244C62.675 88.7244 62.995 88.8311 63.1016 89.0444C63.2083 89.151 63.4216 89.2577 63.6349 89.2577C65.768 87.4446 68.0078 86.378 70.3542 85.9514C71.5274 84.9915 73.0206 83.9249 74.8337 82.7517C76.6469 81.5785 78.14 81.3652 79.4199 82.0051C78.9933 82.1118 78.5666 82.4318 78.14 82.8584C77.9267 83.285 77.6067 83.8183 77.2868 84.4582C76.9668 84.8848 76.4335 85.4181 75.9003 85.8447C75.2603 86.1647 74.5137 86.2714 73.4472 86.1647C73.4472 86.5913 73.6605 86.9113 73.9805 87.0179C71.954 88.0845 69.8209 89.3644 67.5812 90.8575C65.4481 92.2441 63.5283 93.0973 61.9284 93.3106C60.7552 94.4838 59.4754 95.657 58.1955 96.6169C57.0223 97.5768 55.4225 98.2167 53.396 98.75V96.9369C52.9694 98.1101 52.2228 99.07 51.2629 99.8166C50.303 100.456 49.2365 100.883 47.8499 101.203C47.9566 100.776 47.9566 100.456 47.8499 100.35C47.7433 100.137 47.6366 99.9232 47.53 99.6033C47.21 99.8166 46.7834 100.03 46.4634 100.35C46.1435 100.563 46.0368 101.096 46.2501 101.736C45.6102 101.523 45.0769 101.416 44.437 101.416C44.0103 101.416 43.797 101.95 44.117 103.016C43.1571 102.803 42.4105 102.803 41.7706 103.016C41.1307 103.123 40.5974 103.336 39.9574 103.763C39.5308 103.976 38.9976 104.189 38.3576 104.296C37.931 104.403 37.3977 104.296 36.7578 103.976C35.4779 105.043 33.8781 105.789 32.1716 106.216C30.4651 106.643 28.652 107.069 26.6255 107.282C24.7058 107.389 22.786 107.496 20.7595 107.389C18.8397 107.389 17.1332 107.389 15.4267 107.496C14.6802 107.282 14.0402 107.069 13.507 106.749C12.867 106.429 12.4404 105.896 12.1204 105.363C11.6938 105.363 11.3738 105.576 11.2672 106.109C11.2672 106.429 10.9472 106.536 10.4139 106.323C6.36105 103.656 2.94808 100.35 0.175049 96.1903C0.175049 92.4574 0.708325 88.9377 1.98819 85.7381C3.26805 82.4318 4.97453 79.4454 7.00098 76.6724C9.02743 74.006 11.2672 71.5529 13.7203 69.4198C16.28 67.2867 18.8397 65.3669 21.1861 63.7671C21.6128 63.0205 22.3593 62.3806 23.3192 61.634C24.2791 60.8874 25.239 60.3541 26.3056 59.8209C27.3721 59.1809 28.332 58.861 29.2919 58.541C30.3585 58.221 31.2117 58.1144 31.745 58.221C31.9583 57.5811 32.3849 57.2611 32.8116 57.1545C33.4515 57.0478 33.8781 56.8345 34.1981 56.4079C34.838 56.7279 35.2646 57.2611 35.5846 57.7944V58.1144ZM82.2996 79.0188C82.5129 79.2321 82.5129 79.6587 82.2996 80.0854C82.1929 80.512 81.8729 80.9386 81.4463 81.1519C81.1264 81.3652 80.6997 81.4719 80.3798 81.4719C80.0598 81.3652 79.7398 80.9386 79.6332 80.192C80.4864 80.4053 80.9131 80.2987 81.0197 79.872C81.1264 79.2321 81.553 79.0188 82.2996 79.0188Z" fill="#252C26"/>
<path d="M164.316 32.8328C165.276 32.7261 165.809 32.8328 166.129 32.9394C165.489 36.3524 165.596 39.2321 166.556 41.4718C167.409 43.7116 168.582 45.6314 170.182 47.2312C171.889 47.4445 173.062 47.7645 173.702 48.2978C174.555 48.7244 175.835 49.2577 177.435 49.8976C180.954 50.1109 184.367 49.8976 187.674 49.0444C191.086 48.2978 194.393 47.3379 197.592 46.2713C200.792 45.2048 203.992 43.9249 207.085 42.645C210.284 41.2585 213.484 39.9787 216.79 38.8055C216.577 39.7654 216.47 40.5119 216.47 40.9386C216.47 41.2585 216.47 42.1118 216.364 43.3916C217.217 43.3916 217.75 43.7116 218.177 44.2449C221.163 43.1783 223.616 41.7918 225.749 40.2986C227.989 38.5921 230.122 36.8857 232.042 35.2858C234.175 33.4727 236.202 31.7662 238.228 30.273C240.361 28.5666 242.814 27.0734 245.587 25.7935C246.227 29.8464 247.614 33.4727 249.64 36.779C251.667 40.0853 254.76 42.0051 258.919 42.645C260.839 42.645 262.652 42.7517 264.572 42.7517C266.492 42.7517 268.198 42.4317 269.905 42.0051C271.718 41.4718 273.211 40.8319 274.491 39.872C275.771 38.9121 276.731 37.5256 277.264 35.6058C275.131 36.1391 272.998 36.459 270.758 36.779C268.625 36.9923 266.492 37.099 264.359 36.779C262.225 36.5657 260.199 36.0324 258.279 35.2858C256.359 34.3259 254.653 33.0461 253.266 31.2329C252.947 28.6732 252.52 26.5401 251.773 24.8336C251.133 23.0205 250.493 21.314 249.747 19.7142C248.787 20.0341 248.147 20.1408 247.614 19.9275C247.294 19.6075 246.547 19.3942 245.481 19.3942C242.921 20.1408 240.574 21.2073 238.655 22.7005C236.735 23.9804 234.815 25.3669 232.895 26.6468C232.469 27.5 231.935 28.3532 231.509 29.0998C231.082 29.8464 230.442 29.8464 229.589 29.3131C229.909 28.3532 230.442 27.5 231.189 26.6468C232.042 25.6869 232.682 24.727 233.322 23.7671C233.855 22.7005 234.282 21.634 234.388 20.7807C234.388 19.7142 234.175 18.6476 233.322 17.4744C231.829 17.901 230.549 18.541 229.482 19.5009C228.522 20.3541 227.669 21.314 226.816 22.3806C226.069 23.4471 225.429 24.6203 224.683 25.7935C223.936 26.9667 223.19 28.0333 222.443 28.9932C219.777 30.8063 217.004 32.4061 214.337 33.8993C211.778 35.3925 209.005 36.6723 206.232 37.7389C203.458 38.8055 200.365 39.872 197.272 40.8319C194.073 41.7918 190.66 42.7517 186.82 43.6049C182.661 43.8182 179.354 43.4983 176.688 42.645C174.235 41.6851 172.422 39.6587 171.462 36.459C171.782 35.8191 171.995 35.1792 172.102 34.3259C172.208 33.366 172.635 32.8328 173.488 32.5128C176.581 31.9795 179.354 31.3396 181.807 30.4863C184.367 29.5265 187.673 28.6732 191.726 28.0333C191.94 27.82 192.153 27.5 192.26 27.18C192.366 26.7534 192.58 26.4334 193.006 26.4334C194.926 26.4334 196.846 25.9002 198.872 24.727C200.899 23.6604 202.499 22.2739 203.778 20.7807C205.165 19.0742 206.125 17.2611 206.551 15.2347C206.978 13.2082 206.658 11.1818 205.592 9.26196C203.565 7.66213 201.112 6.91554 198.339 7.23551C195.673 7.34216 193.22 8.19541 191.3 9.79524C188.74 10.1152 186.394 10.8618 184.367 12.1416C182.341 13.3149 180.528 14.808 178.928 16.6212C177.328 18.3277 175.728 20.1408 174.235 21.9539C172.742 23.7671 171.035 25.5802 169.329 26.9667C168.049 26.6468 166.876 26.4334 165.916 26.4334C164.956 26.4334 163.889 26.7534 162.61 27.3933C162.61 28.6732 162.503 29.6331 162.076 30.273C161.756 30.913 161.863 31.6596 162.61 32.6195C162.93 32.8328 163.569 32.9394 164.529 32.9394L164.316 32.8328ZM180.101 22.3806C181.061 21.314 182.127 20.3541 183.301 19.5009C184.474 18.6476 185.647 17.7944 186.82 16.9411C188.1 16.0879 189.273 15.2347 190.127 14.2748C190.873 14.4881 191.726 14.3814 192.793 14.0614C193.966 13.7415 195.139 13.4215 196.099 13.1015C197.272 12.7816 198.232 12.6749 199.086 13.1015C199.939 13.3149 200.472 14.1681 200.685 15.5546C199.406 16.9411 197.912 18.221 196.099 19.2875C194.286 20.2474 192.366 21.1007 190.233 21.8473C188.207 22.5939 186.18 23.2338 184.047 23.8737C182.021 24.407 180.101 24.9403 178.181 25.5802C178.394 24.407 178.928 23.3404 179.888 22.3806H180.101Z" fill="#252C26"/>
<path d="M120.908 54.4854C126.774 52.6722 132.32 50.5391 137.332 48.086C142.452 45.5263 146.825 42.22 150.131 37.9538C150.238 37.2072 150.131 36.7806 149.811 36.6739C149.491 36.4606 149.385 35.9273 149.598 35.2874C149.385 35.2874 149.278 35.1808 149.278 34.9674C149.278 34.7541 149.385 34.6475 149.598 34.6475V35.3941H150.131C150.238 34.7541 150.131 34.3275 149.598 34.0075C149.171 33.5809 148.531 33.1543 147.785 32.8343C147.038 32.5144 146.398 32.1944 145.652 31.7678C145.118 31.5545 144.692 31.2345 144.372 30.9145C144.158 30.8079 143.945 30.5946 143.732 30.4879C143.412 30.2746 142.985 29.9547 142.665 29.6347C142.452 29.6347 142.239 29.4214 142.025 29.2081C141.705 28.9948 141.385 28.6748 140.959 28.3548C140.959 28.3548 140.745 28.2482 140.639 28.1415C140.532 28.1415 140.425 27.9282 140.212 27.9282L139.892 27.7149H139.679C139.679 27.7149 139.572 27.7149 139.466 27.6082L139.252 27.3949C139.146 27.5016 139.039 27.6082 138.932 27.7149C136.799 25.4751 135.733 23.1287 135.839 20.4623C136.053 17.6893 136.906 15.4495 138.612 13.5297C140.212 11.5033 142.345 10.1168 144.905 9.3702C147.571 8.62361 150.451 9.15689 153.224 10.8634C153.331 13.4231 152.691 15.7695 151.198 17.796C150.131 19.3958 149.171 20.889 148.211 22.3821C148.211 22.5954 148.211 22.7021 148.211 22.9154C148.211 23.342 148.105 23.7687 147.998 24.0886C147.998 24.3019 147.891 24.5152 147.785 24.7285C147.785 24.9419 147.678 25.0485 147.571 25.2618C147.571 25.5818 147.358 25.9018 147.358 26.3284C147.358 26.5417 147.358 26.755 147.358 26.8617C147.358 26.8617 147.358 26.8617 147.465 26.8617C147.465 26.8617 147.678 26.8617 147.785 26.8617C147.785 26.8617 147.785 26.8617 147.998 26.8617C147.998 26.8617 148.211 26.8617 148.318 26.8617C148.425 26.8617 148.531 26.6483 148.745 26.5417C150.664 25.2618 152.371 23.7687 153.971 22.1688C155.677 20.569 157.17 18.8625 158.13 16.9427C159.197 14.9163 159.517 12.6765 159.09 10.2234C158.877 8.73026 158.237 7.34375 157.277 6.38385C156.424 5.21064 155.357 4.3574 154.077 3.71747C152.904 2.97088 151.518 2.54426 150.024 2.33095C148.531 2.01099 147.038 1.79768 145.545 1.90433C144.158 3.29085 142.772 3.61081 141.279 2.86423C140.852 3.07754 140.639 3.61081 140.745 4.25075C140.852 4.99733 140.532 5.3173 139.892 5.3173C140.106 4.25075 139.679 3.82412 138.612 4.14409C137.332 5.10399 136.159 6.17054 135.093 7.23709C133.92 8.19699 132.746 9.15689 131.36 10.1168C131.146 11.0767 130.933 11.9299 130.827 12.7832C130.72 13.6364 130.187 14.1697 129.227 14.383C128.587 16.8361 128.267 19.0758 128.373 21.1023C128.48 23.1287 128.907 25.0485 129.547 26.755C130.187 28.3548 130.933 29.9547 131.786 31.5545C132.533 33.0477 133.173 34.6475 133.813 36.1407C134.879 35.2874 135.946 35.1808 137.226 35.714C138.506 36.2473 139.466 37.1006 139.892 38.1671C138.292 39.0204 136.906 39.8736 135.839 40.7268C134.666 41.5801 133.493 42.4333 132.32 43.3932C131.253 43.3932 130.293 43.7132 129.547 44.3531C128.587 44.8864 127.627 45.4197 126.774 45.9529C125.92 46.4862 124.854 47.0195 123.787 47.4461C122.614 47.7661 121.228 47.7661 119.734 47.3395C119.308 48.086 118.881 48.2994 118.455 48.086C118.135 47.8727 117.601 48.086 117.068 48.6193C117.068 52.1389 118.455 54.1654 121.014 54.592L120.908 54.4854Z" fill="#252C26"/>
<path d="M278.654 25.0482C279.293 26.648 280.04 28.2479 280.893 29.8477C281.64 31.3409 282.28 32.9407 282.92 34.4339C283.986 33.5806 285.053 33.474 286.333 34.0073C287.613 34.5405 288.572 35.3938 288.999 36.4603C287.399 37.3136 286.013 38.1668 284.946 39.0201C283.773 39.8733 282.6 40.7265 281.427 41.6864C280.36 41.6864 279.4 42.0064 278.654 42.6463C277.694 43.1796 276.734 43.7129 275.88 44.2462C274.921 44.8861 273.961 45.3127 272.894 45.7393C271.721 46.0593 270.334 46.0593 268.841 45.6327C268.415 46.3793 267.988 46.5926 267.561 46.3793C267.241 46.1659 266.708 46.3793 266.175 46.9125C266.175 50.4322 267.561 52.4586 270.121 52.8852C275.987 51.0721 281.427 48.939 286.546 46.4859C291.665 43.9262 296.038 40.6199 299.345 36.3537C299.451 35.6071 299.345 35.1805 299.025 35.0738C298.705 34.8605 298.598 34.3272 298.811 33.6873C298.598 33.6873 298.491 33.5806 298.491 33.3673C298.491 33.154 298.598 33.0474 298.811 33.0474V33.7939H299.345C299.451 33.154 299.345 32.7274 298.811 32.4074C298.385 31.9808 297.745 31.5542 296.998 31.2342C296.252 30.9143 295.612 30.5943 294.865 30.1677C294.332 29.9544 293.905 29.6344 293.585 29.3144C293.372 29.2078 293.159 28.9945 292.945 28.8878C292.625 28.6745 292.199 28.3545 291.879 28.0346C291.665 28.0346 291.452 27.8212 291.239 27.6079C290.919 27.3946 290.599 27.0747 290.172 26.7547C290.172 26.7547 289.959 26.648 289.852 26.5414C289.746 26.5414 289.639 26.3281 289.426 26.3281L289.106 26.1148H288.892C288.892 26.1148 288.786 26.1148 288.679 26.0081L288.466 25.7948C288.359 25.9015 288.252 26.0081 288.146 26.1148C286.013 23.875 284.946 21.5286 285.053 18.8622C285.266 16.0892 286.119 13.8494 287.826 11.9296C289.426 9.90317 291.559 8.51665 294.119 7.77007C296.785 7.02348 299.665 7.55676 302.438 9.26324C302.544 11.823 301.904 14.1694 300.411 16.1958C299.345 17.7957 298.385 19.2888 297.425 20.782C297.425 20.9953 297.425 21.102 297.425 21.3153C297.425 21.7419 297.318 22.1685 297.212 22.4885C297.212 22.7018 297.105 22.9151 296.998 23.1284C296.998 23.3417 296.892 23.4484 296.785 23.6617C296.785 23.9817 296.572 24.3016 296.572 24.7282C296.572 24.9416 296.572 25.1549 296.572 25.2615C296.572 25.2615 296.572 25.2615 296.678 25.2615C296.678 25.2615 296.892 25.2615 296.998 25.2615C296.998 25.2615 296.998 25.2615 297.212 25.2615C297.212 25.2615 297.425 25.2615 297.532 25.2615C297.638 25.2615 297.745 25.0482 297.958 24.9416C299.878 23.6617 301.584 22.1685 303.184 20.5687C304.891 18.9689 306.384 17.2624 307.344 15.3426C308.41 13.3161 308.73 11.0764 308.304 8.62331C308.09 7.13014 307.45 5.74362 306.491 4.78372C305.637 3.61051 304.571 2.75727 303.291 2.11734C302.118 1.37075 300.731 0.944134 299.238 0.730824C297.745 0.410858 296.252 0.197548 294.758 0.304203C293.372 1.69072 291.985 2.01069 290.492 1.2641C290.066 1.47741 289.852 2.01069 289.959 2.65062C290.066 3.3972 289.746 3.71717 289.106 3.71717C289.319 2.65062 288.892 2.224 287.826 2.54396C286.546 3.50386 285.373 4.57041 284.306 5.63696C283.133 6.59686 281.853 7.55676 280.573 8.51665C280.36 9.47655 280.147 10.3298 280.04 11.183C279.933 12.0363 279.4 12.5696 278.44 12.7829C277.8 15.2359 277.48 17.4757 277.587 19.5021C277.694 21.5286 278.12 23.4484 278.76 25.1549L278.654 25.0482Z" fill="#252C26"/>
</svg>
